Coordinates
version=1
nRows=12
nColumns=19
inDegrees=yes

Units are S.I. units (second, meters, Newtons, ...)
If the header above contains a line with 'inDegrees', this indicates whether rotational values are in degrees (yes) or radians (no).

endheader
time	pelvis_obliquity	pelvis_rotation	pelvis_tilt	pelvis_to_ground_tx	pelvis_to_ground_ty	pelvis_to_ground_tz	left_hip_abduction	left_hip_rotation	left_hip_flexion	left_knee_flexion	left_ankle_flexion	left_subtalar_angle	right_hip_abduction	right_hip_rotation	right_hip_flexion	right_knee_flexion	right_ankle_flexion	right_subtalar_angle
      2.66000000	     87.51424513	     24.84267844	    -12.66959480	     -0.06865487	     -0.71604174	      0.60286922	      3.68101752	    -15.67283492	     23.90476320	    -36.92523258	    -20.35144891	    -14.10983585	      0.59598157	      9.77361132	     25.65773934	    -15.02982833	     -5.28575864	    -16.26878464
      2.67000000	     87.60349053	     24.34013807	    -12.63781507	     -0.05794359	     -0.71653909	      0.60601880	      2.74095172	    -14.17231455	     25.74763495	    -37.51615882	    -19.99370292	    -15.00134411	      0.97756560	     10.63367555	     23.35921189	    -12.17445048	     -6.37173602	    -16.36088180
      2.68000000	     87.72072088	     23.73002994	    -12.50385974	     -0.04748636	     -0.71682294	      0.60862559	      1.67077149	    -12.85740320	     27.50366091	    -38.01190967	    -19.60448274	    -15.69852126	      1.33192865	     11.35640432	     21.09094211	     -9.58641961	     -7.31816349	    -16.29649023
      2.69000000	     87.81868148	     23.02383399	    -12.28692505	     -0.03726768	     -0.71692375	      0.61064758	      0.58151864	    -11.80995014	     29.21371256	    -38.40677225	    -19.23360704	    -16.18613248	      1.68608274	     11.97289856	     18.89390025	     -7.27863192	     -8.07371005	    -16.08308038
      2.70000000	     87.86027792	     22.14118495	    -12.01231805	     -0.02728401	     -0.71685436	      0.61204564	     -0.45840552	    -10.88550965	     30.92513450	    -38.69547472	    -19.01452766	    -16.43157166	      2.03526279	     12.55685519	     16.86008689	     -5.35261617	     -8.41731713	    -15.73762062
      2.71000000	     87.75098617	     21.21342351	    -11.64353635	     -0.01746545	     -0.71671334	      0.61280928	     -1.26373409	    -10.26588938	     32.64366898	    -38.88633625	    -18.51575722	    -16.67240894	      2.51325852	     13.04572760	     14.91140779	     -3.69184180	     -9.33633484	    -15.44043994
      2.72000000	     87.57429421	     20.13400566	    -11.26062172	     -0.00777607	     -0.71646056	      0.61299578	     -1.88531140	     -9.85703727	     34.34315954	    -38.86895966	    -18.37921590	    -16.70148548	      2.99555250	     13.61818195	     13.11464223	     -2.34391666	     -9.48663108	    -15.05610233
      2.73000000	     87.25024369	     19.01030397	    -10.80590097	      0.00188021	     -0.71618790	      0.61259359	     -2.17884827	     -9.70621863	     35.98997170	    -38.65889165	    -18.02044297	    -16.59204465	      3.61839640	     14.15686102	     11.37373185	     -1.22698641	     -9.97100734	    -14.61015040
      2.74000000	     86.81974245	     17.73808338	    -10.37494943	      0.01153983	     -0.71588960	      0.61165815	     -2.17622927	     -9.59832527	     37.62184470	    -38.20980934	    -17.91103295	    -16.50120127	      4.29982971	     14.78027702	      9.80336946	     -0.41817190	    -10.03742825	    -14.23831717
      2.75000000	     86.27659410	     16.43543315	     -9.93093987	      0.02130657	     -0.71560761	      0.61023124	     -1.81755342	     -9.67996821	     39.13937174	    -37.49097617	    -17.79634017	    -16.37525375	      5.10209063	     15.38760574	      8.28445570	      0.19714713	    -10.11581934	    -13.86585866
      2.76000000	     85.66249465	     15.09144523	     -9.51143508	      0.03126986	     -0.71535571	      0.60836653	     -1.14363872	     -9.86358698	     40.50957295	    -36.48206569	    -17.71920223	    -16.24687440	      5.97963064	     15.97573443	      6.82409523	      0.63147301	    -10.14925794	    -13.53583455
      2.77000000	     84.99956633	     13.73008314	     -9.12346623	      0.04150686	     -0.71514406	      0.60611832	     -0.18613689	    -10.12310465	     41.68136858	    -35.19139867	    -17.69797153	    -16.14669667	      6.91603585	     16.52680151	      5.40702370	      0.89765090	    -10.13496161	    -13.25562814
